<svg xmlns="http://www.w3.org/2000/svg" viewBox="0 0 100 100"><defs><style>.a{fill:#fdbe1b;}.b{fill:#ffda71;}.c{fill:#ef5a70;}.d{fill:#fce18e;}</style></defs><path class="a" d="M68.6,58.18a22.76,22.76,0,0,0,2.54-4.29,23.16,23.16,0,0,0,2.08-9.78c0-.26,0-.51,0-.77a.49.49,0,0,0,0-.12c0-.22,0-.45,0-.67v-.09c0-.26-.05-.51-.07-.76v-.06L73,41s0-.1,0-.15c0-.23-.07-.46-.12-.69v0q-.06-.36-.15-.72a.7.7,0,0,0,0-.14c0-.19-.09-.39-.13-.58a.83.83,0,0,1,0-.15c-.06-.23-.12-.47-.19-.7h0c-.06-.22-.13-.44-.2-.66L72,37c-.06-.2-.13-.39-.19-.58a.42.42,0,0,1,0-.1c-.08-.22-.17-.45-.26-.67l-.05-.11c-.07-.18-.15-.36-.23-.54a1.11,1.11,0,0,0-.07-.16c-.19-.43-.39-.85-.61-1.26,0-.05,0-.1-.08-.14l-.27-.51a.75.75,0,0,1-.07-.12l-.36-.61,0,0c-.11-.18-.22-.36-.34-.54l-.09-.13L69,30.92l0,0c-.13-.2-.28-.39-.42-.58l-.07-.09-.38-.48-.08-.1c-.3-.37-.61-.73-.93-1.07L67,28.47c-.14-.16-.29-.32-.44-.47l0-.05c-.17-.17-.35-.35-.53-.51l0,0-.5-.47-.08-.07c-.37-.32-.74-.63-1.12-.93l-.06,0-.54-.41,0,0c-.4-.28-.81-.56-1.22-.82l-.07,0c-.42-.27-.85-.52-1.28-.75h0A23.21,23.21,0,0,0,31.34,58.1,28.42,28.42,0,0,1,37,75v.5a5.13,5.13,0,0,0,1.44,3.56h0a4.88,4.88,0,0,0,.53.48l0,0a5.87,5.87,0,0,0,.58.39h0a3.64,3.64,0,0,0,.63.3l0,0a5.2,5.2,0,0,0,.67.21H41a5.65,5.65,0,0,0,.7.11H57.85A5.12,5.12,0,0,0,63,75.52v-.76a26.83,26.83,0,0,1,.93-7,27.78,27.78,0,0,1,1.8-4.83A28.64,28.64,0,0,1,68.6,58.18Z"/><path class="b" d="M35,48.24a3.42,3.42,0,0,1-3.42-3.41A18.48,18.48,0,0,1,50,26.38a3.42,3.42,0,0,1,0,6.83A11.63,11.63,0,0,0,38.38,44.83,3.41,3.41,0,0,1,35,48.24Z"/><path class="c" d="M39.41,90.61v1a1,1,0,0,0,1,1l1.08,2A2.76,2.76,0,0,0,43.88,96h.19L45,97.43a3.26,3.26,0,0,0,2.75,1.48h4.5A3.26,3.26,0,0,0,55,97.43L55.93,96h.19a2.76,2.76,0,0,0,2.36-1.32l1.08-2a1,1,0,0,0,1-1v-9h0a2.05,2.05,0,0,0-2.05-2H41.46a2.05,2.05,0,0,0-2.05,2h0v7.92Z"/><path class="d" d="M49.89,14.66h0A2.7,2.7,0,0,1,47.19,12V3.78a2.7,2.7,0,0,1,2.7-2.69h0a2.7,2.7,0,0,1,2.69,2.69V12A2.7,2.7,0,0,1,49.89,14.66Z"/><path class="d" d="M72.28,24.41h0a2.7,2.7,0,0,0,3.81-.08l5.65-5.92a2.7,2.7,0,0,0-.08-3.81h0a2.7,2.7,0,0,0-3.82.09L72.19,20.6A2.71,2.71,0,0,0,72.28,24.41Z"/><path class="d" d="M80.22,44.29h0a2.71,2.71,0,0,0,3,2.4l8.14-.86a2.7,2.7,0,0,0,2.4-3h0a2.71,2.71,0,0,0-3-2.4l-8.14.85A2.7,2.7,0,0,0,80.22,44.29Z"/><path class="d" d="M73.19,67.11h0a2.71,2.71,0,0,1,3.8-.37l6.32,5.2a2.71,2.71,0,0,1,.36,3.8h0a2.69,2.69,0,0,1-3.79.36l-6.32-5.2A2.71,2.71,0,0,1,73.19,67.11Z"/><path class="d" d="M27.72,24.41h0a2.7,2.7,0,0,1-3.81-.08l-5.65-5.92a2.7,2.7,0,0,1,.08-3.81h0a2.7,2.7,0,0,1,3.82.09l5.65,5.91A2.71,2.71,0,0,1,27.72,24.41Z"/><path class="d" d="M19.78,44.29h0a2.71,2.71,0,0,1-3,2.4l-8.14-.86a2.7,2.7,0,0,1-2.4-3h0a2.71,2.71,0,0,1,3-2.4l8.14.85A2.7,2.7,0,0,1,19.78,44.29Z"/><path class="d" d="M26.81,67.11h0a2.71,2.71,0,0,0-3.8-.37l-6.32,5.2a2.71,2.71,0,0,0-.36,3.8h0a2.69,2.69,0,0,0,3.79.36l6.32-5.2A2.71,2.71,0,0,0,26.81,67.11Z"/></svg>