<svg xmlns="http://www.w3.org/2000/svg" viewBox="0 0 100 100"><defs><style>.a{fill:#ffda71;}.b{fill:#5dc18f;}.c{fill:#dde776;}.d{fill:#ef5a70;}.e{fill:#9675ce;}</style></defs><rect class="a" x="46.75" y="39.8" width="5.07" height="41.15"/><path class="b" d="M33.58,6.48H65A12.32,12.32,0,0,1,77.31,18.8v13A11.27,11.27,0,0,1,66,43.07H32.52A11.27,11.27,0,0,1,21.26,31.8v-13A12.32,12.32,0,0,1,33.58,6.48Z"/><path class="a" d="M87.93,90.66H82.86v-28a6.61,6.61,0,0,0-6.6-6.61H22.31a6.62,6.62,0,0,0-6.61,6.61v28H10.63v-28A11.69,11.69,0,0,1,22.31,51h54A11.69,11.69,0,0,1,87.93,62.66Z"/><path class="c" d="M9.6,65.72h11A8.38,8.38,0,0,1,29,74.1V85.79a7.73,7.73,0,0,1-7.73,7.73H8.95a7.73,7.73,0,0,1-7.73-7.73V74.1A8.38,8.38,0,0,1,9.6,65.72Z"/><path class="d" d="M44.48,65.72h11A8.38,8.38,0,0,1,63.9,74.1V85.79a7.73,7.73,0,0,1-7.73,7.73H43.83a7.73,7.73,0,0,1-7.73-7.73V74.1A8.38,8.38,0,0,1,44.48,65.72Z"/><path class="e" d="M79.36,65.72h11a8.38,8.38,0,0,1,8.38,8.38V85.79a7.73,7.73,0,0,1-7.73,7.73H78.71A7.73,7.73,0,0,1,71,85.79V74.1A8.38,8.38,0,0,1,79.36,65.72Z"/></svg>