<svg xmlns="http://www.w3.org/2000/svg" viewBox="0 0 500 500"><defs><style>.a{fill:#ffda71;}.b{fill:#5dc18f;}.c{fill:#dde776;}.d{fill:#ef5a70;}.e{fill:#9675ce;}</style></defs><rect class="a" x="235.24" y="203.72" width="23" height="186.6"/><path class="b" d="M175.54,52.64H318a55.88,55.88,0,0,1,55.88,55.88v58.94a51.09,51.09,0,0,1-51.09,51.09h-152a51.09,51.09,0,0,1-51.09-51.09V108.52a55.88,55.88,0,0,1,55.88-55.88Z"/><path class="a" d="M422,434.4H399v-127a30,30,0,0,0-29.95-29.95H124.42a30,30,0,0,0-29.95,29.95v127h-23v-127a53,53,0,0,1,53-52.95H369.07A53,53,0,0,1,422,307.39Z"/><path class="c" d="M66.77,321.29h50.09a38,38,0,0,1,38,38v53a35.05,35.05,0,0,1-35.05,35.05h-56a35.05,35.05,0,0,1-35.05-35.05v-53A38,38,0,0,1,66.77,321.29Z"/><path class="d" d="M225,321.29H275a38,38,0,0,1,38,38v53A35.05,35.05,0,0,1,278,447.36H222A35.05,35.05,0,0,1,187,412.31v-53A38,38,0,0,1,225,321.29Z"/><path class="e" d="M383.14,321.29h50.09a38,38,0,0,1,38,38v53a35.05,35.05,0,0,1-35.05,35.05h-56a35.05,35.05,0,0,1-35.05-35.05v-53A38,38,0,0,1,383.14,321.29Z"/></svg>