<svg xmlns="http://www.w3.org/2000/svg" viewBox="0 0 500 500"><defs><style>.a{fill:#fdbe1b;}.b{fill:#ffda71;}.c{fill:#ef5a70;}.d{fill:#fce18e;}</style></defs><path class="a" d="M335.4,287.58A106.28,106.28,0,0,0,356.62,223c0-1.18,0-2.35-.09-3.52l0-.56q-.06-1.56-.18-3.09l0-.42c-.09-1.17-.2-2.34-.33-3.49l0-.25c-.12-1-.25-2.07-.4-3.1,0-.23-.07-.46-.1-.68-.16-1.07-.34-2.13-.53-3.19,0,0,0-.07,0-.11-.2-1.11-.43-2.22-.67-3.32,0-.21-.09-.41-.14-.62-.2-.91-.41-1.81-.64-2.7-.05-.22-.11-.45-.16-.67-.28-1.07-.57-2.15-.88-3.21l0-.06c-.3-1-.62-2-.95-3-.07-.25-.16-.49-.24-.74-.29-.88-.6-1.75-.91-2.62-.06-.16-.12-.32-.17-.49-.38-1-.78-2-1.18-3-.07-.18-.15-.35-.22-.52-.34-.84-.7-1.67-1.06-2.5-.11-.24-.21-.48-.32-.71q-1.32-3-2.82-5.81l-.34-.64q-.63-1.19-1.29-2.34l-.31-.56c-.54-.94-1.09-1.87-1.66-2.8l-.15-.22c-.51-.84-1.05-1.67-1.59-2.49-.13-.2-.26-.41-.4-.61-.54-.82-1.1-1.63-1.67-2.43l-.14-.22q-1-1.33-1.95-2.64c-.11-.14-.21-.28-.32-.41-.57-.75-1.14-1.48-1.73-2.21l-.38-.46q-2.07-2.53-4.29-4.94c-.12-.14-.25-.27-.38-.41-.68-.73-1.36-1.44-2.06-2.15l-.21-.22c-.8-.8-1.6-1.59-2.42-2.36l-.1-.1c-.77-.72-1.54-1.43-2.32-2.12l-.36-.32c-1.67-1.48-3.39-2.9-5.14-4.27l-.26-.2c-.82-.64-1.66-1.26-2.5-1.87l-.24-.18q-2.73-2-5.59-3.78l-.32-.2c-1.92-1.21-3.89-2.36-5.89-3.45h0A106.58,106.58,0,0,0,164.32,287.2a130.48,130.48,0,0,1,26.1,77.68v2.32A23.44,23.44,0,0,0,197,383.51l0,0a23.92,23.92,0,0,0,2.43,2.18l.09.08a24.5,24.5,0,0,0,2.68,1.79l.15.08a22.61,22.61,0,0,0,2.89,1.39l.19.07a23.21,23.21,0,0,0,3.07.95l.25.06a24.1,24.1,0,0,0,3.21.48l.28,0c.55,0,1.1.07,1.66.07h72.12a23.51,23.51,0,0,0,23.52-23.52v-3.49a123.59,123.59,0,0,1,4.28-32.12,127.7,127.7,0,0,1,8.26-22.17A131.81,131.81,0,0,1,335.4,287.58Z"/><path class="b" d="M181,241.93a15.68,15.68,0,0,1-15.68-15.68,84.79,84.79,0,0,1,84.7-84.7,15.68,15.68,0,1,1,0,31.36,53.4,53.4,0,0,0-53.34,53.34A15.68,15.68,0,0,1,181,241.93Z"/><path class="c" d="M201.39,436.49v4.7a4.71,4.71,0,0,0,4.71,4.71l5,9.33a12.72,12.72,0,0,0,10.84,6h.86L227,467.8a15.14,15.14,0,0,0,12.66,6.8h20.64A15.14,15.14,0,0,0,273,467.8l4.27-6.52h.86a12.71,12.71,0,0,0,10.84-6l4.95-9.33a4.71,4.71,0,0,0,4.71-4.71V400.13h0a9.41,9.41,0,0,0-9.41-9.41H210.8a9.41,9.41,0,0,0-9.41,9.41h0v36.36Z"/><path class="d" d="M249.48,87.73h0A12.42,12.42,0,0,1,237.1,75.35V37.78A12.42,12.42,0,0,1,249.48,25.4h0a12.42,12.42,0,0,1,12.38,12.38V75.35A12.42,12.42,0,0,1,249.48,87.73Z"/><path class="d" d="M352.31,132.51h0a12.42,12.42,0,0,0,17.5-.4l25.95-27.17a12.4,12.4,0,0,0-.4-17.5h0a12.4,12.4,0,0,0-17.5.4L351.91,115A12.4,12.4,0,0,0,352.31,132.51Z"/><path class="d" d="M388.76,223.77h0a12.41,12.41,0,0,0,13.6,11l37.37-3.92a12.41,12.41,0,0,0,11-13.6h0a12.41,12.41,0,0,0-13.6-11l-37.37,3.91A12.42,12.42,0,0,0,388.76,223.77Z"/><path class="d" d="M356.51,328.56h0a12.42,12.42,0,0,1,17.43-1.69l29,23.88a12.42,12.42,0,0,1,1.69,17.43h0a12.43,12.43,0,0,1-17.43,1.69L358.2,346A12.4,12.4,0,0,1,356.51,328.56Z"/><path class="d" d="M147.69,132.51h0a12.42,12.42,0,0,1-17.5-.4l-25.95-27.17a12.4,12.4,0,0,1,.4-17.5h0a12.4,12.4,0,0,1,17.5.4l26,27.17A12.4,12.4,0,0,1,147.69,132.51Z"/><path class="d" d="M111.24,223.77h0a12.41,12.41,0,0,1-13.6,11l-37.37-3.92a12.41,12.41,0,0,1-11-13.6h0a12.41,12.41,0,0,1,13.6-11l37.37,3.91A12.42,12.42,0,0,1,111.24,223.77Z"/><path class="d" d="M143.49,328.56h0a12.42,12.42,0,0,0-17.43-1.69l-29,23.88a12.42,12.42,0,0,0-1.69,17.43h0a12.43,12.43,0,0,0,17.43,1.69l29-23.89A12.4,12.4,0,0,0,143.49,328.56Z"/></svg>