<svg xmlns="http://www.w3.org/2000/svg" viewBox="0 0 500 500"><defs><style>.a{fill:#fdbe1b;}.b{fill:#4f4289;}.c{fill:#ef5a70;}.d{fill:#5dc18f;}.e{fill:#ffda71;}</style></defs><path class="a" d="M455.84,243.66H444.45a8.76,8.76,0,0,1-8.29-6.09,110.49,110.49,0,0,0-6.3-15.18,8.39,8.39,0,0,1-.91-3.83,8.9,8.9,0,0,1,2.61-6.27l8-8a13.77,13.77,0,0,0,0-19.47l-21.46-21.46a13.75,13.75,0,0,0-19.47,0l-8,8a8.9,8.9,0,0,1-6.27,2.61,8.36,8.36,0,0,1-3.83-.91,110.49,110.49,0,0,0-15.18-6.3,8.76,8.76,0,0,1-6.09-8.29V147.08a13.76,13.76,0,0,0-13.77-13.77H315.14a13.78,13.78,0,0,0-13.77,13.77v11.39a8.76,8.76,0,0,1-6.09,8.29,110.49,110.49,0,0,0-15.18,6.3,8.36,8.36,0,0,1-3.83.91,8.89,8.89,0,0,1-6.26-2.61l-8-8a13.75,13.75,0,0,0-19.47,0l-21.46,21.46a13.77,13.77,0,0,0,0,19.47l8,8a8.84,8.84,0,0,1,2.6,6.27,8.39,8.39,0,0,1-.91,3.83,113,113,0,0,0-6.3,15.18,8.75,8.75,0,0,1-8.28,6.09h-11.4A13.78,13.78,0,0,0,191,257.43v30.35a13.79,13.79,0,0,0,13.77,13.77h11.4a8.74,8.74,0,0,1,8.28,6.09,113,113,0,0,0,6.3,15.18,8.36,8.36,0,0,1,.91,3.83,8.84,8.84,0,0,1-2.6,6.26l-8,8a13.77,13.77,0,0,0,0,19.47l21.46,21.46a13.77,13.77,0,0,0,19.47,0l8-8a8.89,8.89,0,0,1,6.26-2.61,8.5,8.5,0,0,1,3.83.92,113,113,0,0,0,15.18,6.3,8.75,8.75,0,0,1,6.09,8.28v11.4a13.79,13.79,0,0,0,13.77,13.77h30.35a13.78,13.78,0,0,0,13.77-13.77v-11.4a8.75,8.75,0,0,1,6.09-8.28,113,113,0,0,0,15.18-6.3,8.54,8.54,0,0,1,3.83-.92,8.9,8.9,0,0,1,6.27,2.61l8,8a13.77,13.77,0,0,0,19.47,0l21.46-21.46a13.77,13.77,0,0,0,0-19.47l-8-8a8.89,8.89,0,0,1-2.61-6.26,8.36,8.36,0,0,1,.91-3.83,110.49,110.49,0,0,0,6.3-15.18,8.75,8.75,0,0,1,8.29-6.09h11.39a13.78,13.78,0,0,0,13.77-13.77V257.43A13.76,13.76,0,0,0,455.84,243.66Z"/><polygon class="b" points="108.92 286.78 108.92 286.78 108.92 286.78 108.92 286.78"/><path class="c" d="M207.52,329.07l-4-14a7.9,7.9,0,0,0-7.61-5.76,8.09,8.09,0,0,0-2.16.3h0l-5.26,1.49a2.86,2.86,0,0,1-3.19-1.2,54.33,54.33,0,0,0-5-6.34,2.8,2.8,0,0,1-.74-1.92,3,3,0,0,1,.38-1.45h0l2.65-4.73a7.93,7.93,0,0,0-3.05-10.77l-12.72-7.11a7.93,7.93,0,0,0-10.77,3.05l-2.64,4.73a2.91,2.91,0,0,1-2.53,1.51,2.29,2.29,0,0,1-.52-.05,55.18,55.18,0,0,0-8-.95,2.91,2.91,0,0,1-2.7-2.08l-1.49-5.27a7.91,7.91,0,0,0-7.61-5.75,7.71,7.71,0,0,0-2.16.3l-14,4a7.9,7.9,0,0,0-5.76,7.61,7.71,7.71,0,0,0,.3,2.16l1.49,5.26a2.91,2.91,0,0,1,.1.77,2.94,2.94,0,0,1-1.31,2.42,54.19,54.19,0,0,0-6.34,5A2.8,2.8,0,0,1,101,301a2.88,2.88,0,0,1-1.45-.38L94.76,298A7.9,7.9,0,0,0,84,301l-7.11,12.72a7.9,7.9,0,0,0,3,10.77l4.73,2.64a3,3,0,0,1,1.51,2.53,3.27,3.27,0,0,1-.05.53h0a53.54,53.54,0,0,0-.95,8,2.89,2.89,0,0,1-2.09,2.7l-5.26,1.49A7.9,7.9,0,0,0,72.07,350a8.09,8.09,0,0,0,.3,2.16h0l4,14a7.9,7.9,0,0,0,9.76,5.46l5.27-1.49a2.56,2.56,0,0,1,.77-.11,2.94,2.94,0,0,1,2.42,1.31,54.33,54.33,0,0,0,5,6.34,2.9,2.9,0,0,1,.74,1.92,3,3,0,0,1-.38,1.45l-2.65,4.73a7.93,7.93,0,0,0,3,10.77l12.72,7.11a8,8,0,0,0,3.85,1,7.89,7.89,0,0,0,6.91-4.05l2.65-4.73a2.89,2.89,0,0,1,2.53-1.51,2.29,2.29,0,0,1,.52.05,55,55,0,0,0,8,.95,2.9,2.9,0,0,1,2.7,2.08l1.49,5.26a7.9,7.9,0,0,0,7.61,5.76,8,8,0,0,0,2.15-.3l14-4a7.93,7.93,0,0,0,5.76-7.61,8,8,0,0,0-.3-2.16h0l-1.49-5.27a2.84,2.84,0,0,1-.1-.76,2.94,2.94,0,0,1,1.31-2.42,55.26,55.26,0,0,0,6.34-5,2.8,2.8,0,0,1,1.91-.73,2.88,2.88,0,0,1,1.45.38l4.74,2.64a7.9,7.9,0,0,0,10.76-3L203,367.52a7.91,7.91,0,0,0-3-10.77l-4.74-2.65a2.84,2.84,0,0,1-1.46-3h0a54.85,54.85,0,0,0,1-8,2.89,2.89,0,0,1,2.09-2.69l5.26-1.49a7.9,7.9,0,0,0,5.76-7.61,8,8,0,0,0-.3-2.16Zm-36.34,11.48a31.47,31.47,0,0,1-6,18.34,31.2,31.2,0,0,1-55.6-10.76,30.68,30.68,0,0,1-.92-7.44,31.47,31.47,0,0,1,6-18.34,31.2,31.2,0,0,1,55.6,10.76A30.68,30.68,0,0,1,171.18,340.55Z"/><path class="d" d="M85.92,253.16l4.45-6.46a5.38,5.38,0,0,1,4.4-2.35,5.12,5.12,0,0,1,1.44.21A77.76,77.76,0,0,0,107.49,247a5.32,5.32,0,0,1,4.57,4.28l1.43,7.79a10.34,10.34,0,0,0,10.16,8.46,11,11,0,0,0,1.88-.17l20.75-3.83a10.34,10.34,0,0,0,8.46-10.16,10,10,0,0,0-.17-1.88h0l-1.44-7.79a6.22,6.22,0,0,1-.09-1,5.37,5.37,0,0,1,2.83-4.68,76.27,76.27,0,0,0,9.67-6.28,5.19,5.19,0,0,1,3.15-1.05,5.44,5.44,0,0,1,3.08,1l6.46,4.45a10.31,10.31,0,0,0,14.37-2.65l12-17.38a10.34,10.34,0,0,0-2.65-14.37l-6.47-4.45a5.4,5.4,0,0,1-2.34-4.41,5,5,0,0,1,.21-1.43h0a76.16,76.16,0,0,0,2.41-11.28,5.33,5.33,0,0,1,4.28-4.56l7.79-1.44A10.34,10.34,0,0,0,216.26,164a9.26,9.26,0,0,0-.17-1.88h0l-3.83-20.75a10.31,10.31,0,0,0-10.15-8.46,10.05,10.05,0,0,0-1.88.18h0l-7.79,1.43a5.17,5.17,0,0,1-.95.09,5.38,5.38,0,0,1-4.68-2.82,78.24,78.24,0,0,0-6.28-9.68,5.16,5.16,0,0,1-1.05-3.14,5.41,5.41,0,0,1,1-3.08h0l4.45-6.47A10.34,10.34,0,0,0,182.24,95l-17.38-12a10.33,10.33,0,0,0-14.38,2.65h0L146,92.19a5.34,5.34,0,0,1-4.4,2.34,5.11,5.11,0,0,1-1.44-.2,77.48,77.48,0,0,0-11.28-2.42,5.3,5.3,0,0,1-4.56-4.28h0l-1.44-7.79a10.34,10.34,0,0,0-10.15-8.46,11,11,0,0,0-1.89.17L90.12,75.38a10.34,10.34,0,0,0-8.46,10.16,11,11,0,0,0,.17,1.88h0l1.44,7.79h0a5.09,5.09,0,0,1,.09,1,5.36,5.36,0,0,1-2.82,4.67,77.57,77.57,0,0,0-9.68,6.29,5.17,5.17,0,0,1-3.15,1,5.38,5.38,0,0,1-3.07-1l-6.47-4.45a10.31,10.31,0,0,0-14.37,2.65l-12,17.38a10.34,10.34,0,0,0,2.65,14.37L41,141.61A5.4,5.4,0,0,1,43.29,146a5.12,5.12,0,0,1-.21,1.44h0a78.79,78.79,0,0,0-2.41,11.28,5.33,5.33,0,0,1-4.28,4.56l-7.79,1.44a10.31,10.31,0,0,0-8.46,10.15,10.22,10.22,0,0,0,.17,1.89h0l3.83,20.76a10.29,10.29,0,0,0,12,8.28L44,204.38a5.07,5.07,0,0,1,.94-.09,5.36,5.36,0,0,1,4.68,2.82,78.24,78.24,0,0,0,6.28,9.68,5.16,5.16,0,0,1,1.05,3.14A5.44,5.44,0,0,1,56,223l-4.45,6.46a10.35,10.35,0,0,0,2.65,14.38l17.39,12a10.31,10.31,0,0,0,14.37-2.65Zm-13.56-76.8a45.93,45.93,0,0,1-.52-6.88,46.36,46.36,0,0,1,92.21-6.95,47.26,47.26,0,0,1,.51,6.88,46.36,46.36,0,0,1-92.2,7Z"/><path class="e" d="M398.07,274.82a68,68,0,0,1-65.53,65.54l-2.22,0a67.77,67.77,0,0,1-67.79-67.79c0-.73,0-1.47,0-2.21h0a68,68,0,0,1,65.54-65.53c.74,0,1.48,0,2.22,0a67.81,67.81,0,0,1,67.79,67.79c0,.74,0,1.48,0,2.23Z"/></svg>