<svg xmlns="http://www.w3.org/2000/svg" viewBox="0 0 500 500"><defs><style>.a{fill:#80c783;}.b{fill:#9675ce;}.c{fill:#ffb64d;}.d{fill:#ffda71;}</style></defs><path class="a" d="M107.76,251.38h35.76A89.44,89.44,0,0,1,233,340.82v71.12a23.74,23.74,0,0,1-23.74,23.74H42.05a23.74,23.74,0,0,1-23.74-23.74V340.82A89.44,89.44,0,0,1,107.76,251.38Z"/><path class="b" d="M317.11,197.54h51.8A112.77,112.77,0,0,1,481.68,310.31V407.8a27.88,27.88,0,0,1-27.88,27.88H232.21a27.88,27.88,0,0,1-27.88-27.88V310.31A112.77,112.77,0,0,1,317.11,197.54Z"/><circle class="c" cx="343.01" cy="148.28" r="83.96"/><circle class="d" cx="125.64" cy="213.26" r="64.98"/></svg>