<svg xmlns="http://www.w3.org/2000/svg" viewBox="0 0 500 500"><defs><style>.a{fill:#03b5d3;}.b{fill:#5dc18f;}.c{fill:#ade0f1;}.d{fill:#dde776;}</style></defs><path class="a" d="M98.52,76.73H400a57.87,57.87,0,0,1,57.87,57.87V349.06a0,0,0,0,1,0,0H40.65a0,0,0,0,1,0,0V134.59A57.87,57.87,0,0,1,98.52,76.73Z"/><path class="b" d="M21.84,349.06H478.16a9,9,0,0,1,9,9v14.65a50.59,50.59,0,0,1-50.59,50.59H63.46a50.59,50.59,0,0,1-50.59-50.59V358A9,9,0,0,1,21.84,349.06Z"/><path class="c" d="M348.86,146.28h0a60.35,60.35,0,1,0,60.35,60.34A60.41,60.41,0,0,0,348.86,146.28Zm8.27,60.48a10.58,10.58,0,0,0-.74-6.29l-15-34.75a41.18,41.18,0,0,1,7.43-.7,41.61,41.61,0,1,1-41.55,43.84l37.31,6.52A10.76,10.76,0,0,0,357.13,206.76Zm-46.56-16.35a42.22,42.22,0,0,1,13.65-17.25l9.17,21.27Z"/><path class="c" d="M405,302H293.06a7.23,7.23,0,0,1-7.34-6.83,7,7,0,0,1,7-7.2H404.66a7.23,7.23,0,0,1,7.34,6.83A7,7,0,0,1,405,302Z"/><rect class="d" x="157.2" y="208.57" width="151.06" height="39.58" rx="19.79" transform="translate(461.09 -4.38) rotate(90)"/><rect class="d" x="120.11" y="230.61" width="106.97" height="39.58" rx="19.79" transform="translate(423.99 76.81) rotate(90)"/><rect class="d" x="84.36" y="255.07" width="58.05" height="39.58" rx="19.79" transform="translate(388.25 161.48) rotate(90)"/></svg>