<svg xmlns="http://www.w3.org/2000/svg" viewBox="0 0 500 500"><defs><style>.a{fill:#9675ce;}.b{fill:#f05b71;}.c{fill:#f2778b;}</style></defs><path class="a" d="M308,331.73a88.25,88.25,0,0,1-113.53,0l-165.92-139a5.13,5.13,0,0,0-8.43,3.94V399.31a56.22,56.22,0,0,0,56.21,56.21H426.26a56.22,56.22,0,0,0,56.21-56.21V196.54A5.14,5.14,0,0,0,474,192.6Z"/><path class="b" d="M288,306.51,461.9,160.79c41-34.34,16.69-101.12-36.78-101.12H77.39c-53.47,0-77.75,66.78-36.77,101.12L214.48,306.51A57.25,57.25,0,0,0,288,306.51Z"/><rect class="c" x="51.7" y="90.65" width="151.43" height="51.07" rx="25.53"/></svg>