<svg xmlns="http://www.w3.org/2000/svg" viewBox="0 0 100 100"><defs><style>.a{fill:#fdbe1b;}.b{fill:#4f4289;}.c{fill:#ef5a70;}.d{fill:#5dc18f;}.e{fill:#ffda71;}</style></defs><path class="a" d="M96,50.44H93.52a1.89,1.89,0,0,1-1.8-1.33,24.05,24.05,0,0,0-1.38-3.31,1.88,1.88,0,0,1-.2-.83,2,2,0,0,1,.57-1.37l1.74-1.74a3,3,0,0,0,0-4.25l-4.68-4.68a3,3,0,0,0-4.24,0l-1.74,1.74a1.91,1.91,0,0,1-1.37.57,1.79,1.79,0,0,1-.84-.2,24.76,24.76,0,0,0-3.31-1.37A1.9,1.9,0,0,1,75,31.86V29.38a3,3,0,0,0-3-3H65.32a3,3,0,0,0-3,3v2.48A1.9,1.9,0,0,1,61,33.67,25.31,25.31,0,0,0,57.68,35a1.75,1.75,0,0,1-.83.2,1.91,1.91,0,0,1-1.37-.57l-1.74-1.74a3,3,0,0,0-4.25,0l-4.68,4.68a3,3,0,0,0,0,4.25l1.74,1.74A1.91,1.91,0,0,1,47.12,45a1.87,1.87,0,0,1-.19.83,24.05,24.05,0,0,0-1.38,3.31,1.9,1.9,0,0,1-1.81,1.33H41.26a3,3,0,0,0-3,3v6.62a3,3,0,0,0,3,3h2.48a1.91,1.91,0,0,1,1.81,1.33,23.55,23.55,0,0,0,1.38,3.31,1.94,1.94,0,0,1-.38,2.21l-1.74,1.74a3,3,0,0,0,0,4.24l4.68,4.68a3,3,0,0,0,4.25,0l1.74-1.74a2,2,0,0,1,1.37-.57,1.88,1.88,0,0,1,.83.2A24.05,24.05,0,0,0,61,79.84a1.89,1.89,0,0,1,1.33,1.8v2.49a3,3,0,0,0,3,3h6.62a3,3,0,0,0,3-3V81.64a1.9,1.9,0,0,1,1.32-1.8,23.55,23.55,0,0,0,3.31-1.38,1.92,1.92,0,0,1,.84-.2,2,2,0,0,1,1.37.57l1.74,1.74a3,3,0,0,0,4.24,0l4.68-4.68a3,3,0,0,0,0-4.24l-1.74-1.74a2,2,0,0,1-.57-1.37,1.92,1.92,0,0,1,.2-.84,23.55,23.55,0,0,0,1.38-3.31,1.91,1.91,0,0,1,1.8-1.33H96a3,3,0,0,0,3-3V53.44A3,3,0,0,0,96,50.44Z"/><polygon class="b" points="20.35 59.85 20.35 59.84 20.35 59.84 20.35 59.85"/><path class="c" d="M41.85,69.07,41,66a1.75,1.75,0,0,0-.63-.91,1.71,1.71,0,0,0-1-.35,1.84,1.84,0,0,0-.47.07h0l-1.15.32a.51.51,0,0,1-.17,0,.61.61,0,0,1-.52-.29,12.33,12.33,0,0,0-1.1-1.38.64.64,0,0,1-.08-.73h0l.58-1a1.67,1.67,0,0,0,.22-.84,1.72,1.72,0,0,0-.88-1.5L33,57.83a1.66,1.66,0,0,0-.84-.21,1.71,1.71,0,0,0-1.51.88l-.57,1a.64.64,0,0,1-.55.33h-.12a12.67,12.67,0,0,0-1.75-.21.63.63,0,0,1-.59-.45L26.73,58a1.75,1.75,0,0,0-1.66-1.26,1.84,1.84,0,0,0-.47.07l-3.06.86a1.75,1.75,0,0,0-1.26,1.66,1.84,1.84,0,0,0,.07.47L20.68,61a1,1,0,0,1,0,.17.64.64,0,0,1-.29.53A12.25,12.25,0,0,0,19,62.78a.6.6,0,0,1-.42.16.65.65,0,0,1-.31-.08l-1-.58a1.67,1.67,0,0,0-.84-.22,1.71,1.71,0,0,0-1.5.89l-1.55,2.77a1.73,1.73,0,0,0-.22.84A1.71,1.71,0,0,0,14,68.07l1,.58a.62.62,0,0,1,.33.55.45.45,0,0,1,0,.11h0a12.86,12.86,0,0,0-.21,1.75.62.62,0,0,1-.45.59L13.57,72a1.75,1.75,0,0,0-1.26,1.66,2,2,0,0,0,.07.48h0l.87,3.06a1.71,1.71,0,0,0,.62.92,1.81,1.81,0,0,0,1,.34,1.59,1.59,0,0,0,.48-.07L16.52,78l.17,0a.67.67,0,0,1,.53.29,12.25,12.25,0,0,0,1.09,1.38.65.65,0,0,1,.08.74l-.58,1a1.7,1.7,0,0,0-.22.84,1.74,1.74,0,0,0,.89,1.51l2.77,1.55a1.72,1.72,0,0,0,2.35-.67l.58-1a.64.64,0,0,1,.55-.33h.11a12.86,12.86,0,0,0,1.75.21.64.64,0,0,1,.59.45l.33,1.15a1.71,1.71,0,0,0,.62.92,1.81,1.81,0,0,0,1,.34,1.59,1.59,0,0,0,.48-.07l3-.86A1.72,1.72,0,0,0,34,83.8a1.49,1.49,0,0,0-.07-.47h0l-.32-1.15a.5.5,0,0,1,0-.17.66.66,0,0,1,.28-.53,11.21,11.21,0,0,0,1.38-1.09.67.67,0,0,1,.42-.16.72.72,0,0,1,.32.08l1,.58a1.7,1.7,0,0,0,.84.22,1.75,1.75,0,0,0,1.51-.88l1.55-2.78a1.67,1.67,0,0,0,.22-.84,1.74,1.74,0,0,0-.89-1.51l-1-.57a.66.66,0,0,1-.33-.55s0-.08,0-.12h0a10.2,10.2,0,0,0,.21-1.75.64.64,0,0,1,.46-.59l1.14-.32a1.72,1.72,0,0,0,1.26-1.66,1.49,1.49,0,0,0-.07-.47Zm-7.92,2.5a6.8,6.8,0,0,1-6.82,6.83,6.84,6.84,0,0,1-6.61-5.17,7,7,0,0,1-.19-1.63,6.84,6.84,0,0,1,1.29-4,6.72,6.72,0,0,1,3.45-2.5,6.74,6.74,0,0,1,6.22,1.09A6.74,6.74,0,0,1,33.73,70,6.91,6.91,0,0,1,33.93,71.57Z"/><path class="d" d="M15.33,52.51l1-1.41a1.17,1.17,0,0,1,1-.51,1.12,1.12,0,0,1,.31,0,16.79,16.79,0,0,0,2.46.52,1.17,1.17,0,0,1,1,.94l.32,1.7a2.24,2.24,0,0,0,2.21,1.84,1.84,1.84,0,0,0,.41,0l4.53-.83a2.24,2.24,0,0,0,1.84-2.21,3,3,0,0,0,0-.42h0L30,50.45a1.49,1.49,0,0,1,0-.21,1.16,1.16,0,0,1,.62-1,17.74,17.74,0,0,0,2.11-1.37,1.14,1.14,0,0,1,.69-.23,1.2,1.2,0,0,1,.67.21l1.41,1a2.22,2.22,0,0,0,1.27.4,2.24,2.24,0,0,0,1.86-1l2.61-3.79a2.24,2.24,0,0,0-.58-3.13l-1.41-1a1.13,1.13,0,0,1-.46-1.28h0a16.79,16.79,0,0,0,.52-2.46,1.16,1.16,0,0,1,.94-1l1.7-.32a2.24,2.24,0,0,0,1.84-2.21,1.84,1.84,0,0,0,0-.41h0l-.83-4.53a2.24,2.24,0,0,0-2.22-1.84l-.41,0h0l-1.7.32-.2,0a1.16,1.16,0,0,1-1-.62A18.59,18.59,0,0,0,36,23.93a1.08,1.08,0,0,1-.23-.68,1.21,1.21,0,0,1,.21-.68h0l1-1.41a2.2,2.2,0,0,0,.4-1.27,2.27,2.27,0,0,0-1-1.86l-3.79-2.61a2.24,2.24,0,0,0-3.13.58h0l-1,1.41a1.17,1.17,0,0,1-1,.51,1.12,1.12,0,0,1-.31-.05,16.79,16.79,0,0,0-2.46-.52,1.16,1.16,0,0,1-1-.94h0l-.32-1.7a2.24,2.24,0,0,0-2.21-1.84,1.84,1.84,0,0,0-.41,0l-4.53.83A2.24,2.24,0,0,0,14.41,16a2.93,2.93,0,0,0,0,.41h0l.32,1.7h0a1.36,1.36,0,0,1,0,.2,1.16,1.16,0,0,1-.62,1,17.74,17.74,0,0,0-2.11,1.37,1.08,1.08,0,0,1-.69.23,1.2,1.2,0,0,1-.67-.21l-1.41-1A2.22,2.22,0,0,0,8,19.31a2.27,2.27,0,0,0-1.86,1L3.54,24.08a2.25,2.25,0,0,0,.58,3.14l1.41,1a1.17,1.17,0,0,1,.51,1,1.12,1.12,0,0,1,0,.31H6a16.79,16.79,0,0,0-.52,2.46,1.17,1.17,0,0,1-.94,1l-1.7.31A2.24,2.24,0,0,0,1,35.44a1.84,1.84,0,0,0,0,.41H1l.83,4.53a2.26,2.26,0,0,0,.78,1.33,2.3,2.3,0,0,0,1.44.51l.41,0,1.7-.32.2,0a1.16,1.16,0,0,1,1,.62,17.74,17.74,0,0,0,1.37,2.11,1.08,1.08,0,0,1,.23.69,1.2,1.2,0,0,1-.21.67l-1,1.41a2.22,2.22,0,0,0-.4,1.27,2.26,2.26,0,0,0,1,1.86l3.79,2.61a2.24,2.24,0,0,0,3.13-.58ZM12.38,35.76a9.48,9.48,0,0,1-.12-1.5,10.11,10.11,0,0,1,20.11-1.51,9.48,9.48,0,0,1,.12,1.5,10.11,10.11,0,0,1-20.11,1.51Z"/><path class="e" d="M83.41,57.24A14.84,14.84,0,0,1,69.12,71.53h-.49A14.78,14.78,0,0,1,53.85,56.75c0-.16,0-.32,0-.48h0A14.82,14.82,0,0,1,68.15,42h.48A14.78,14.78,0,0,1,83.42,56.75c0,.16,0,.33,0,.49Z"/></svg>