<?xml version="1.0" encoding="UTF-8"?>
<svg id="Layer_2" data-name="Layer 2" xmlns="http://www.w3.org/2000/svg" viewBox="0 0 134.9 33.51">
  <defs>
    <style>
      .cls-1 {
        fill: #6651a1;
      }

      .cls-2 {
        fill: #2e4955;
      }

      .cls-3 {
        fill: #32b34a;
      }
    </style>
  </defs>
  <g id="Layer_1-2" data-name="Layer 1">
    <g>
      <path class="cls-2" d="M8.74,25.09c0-1.77,1-3.37,2.58-4.1,1.15-.52,2.46-.52,3.61,0,.66,.31,1.24,.78,1.69,1.37,.58,.79,.89,1.74,.89,2.73,0,1-.32,1.97-.92,2.75-.83,1.09-2.11,1.73-3.46,1.74-2.42,0-4.37-2.01-4.38-4.49Z"/>
      <path class="cls-2" d="M17.5,25.17c0,1.77-1,3.37-2.58,4.1-1.15,.52-2.46,.52-3.61,0-.66-.31-1.24-.78-1.69-1.37-.58-.78-.89-1.74-.89-2.72"/>
      <path class="cls-2" d="M54.27,23.85v.05c.03,2.54-.96,4.99-2.73,6.77h0c-1.74,1.82-4.13,2.83-6.61,2.8h-13.09c-.87,0-1.58-.72-1.58-1.62v-1.65c0-.89,.7-1.62,1.58-1.62h13.08c1.22,.03,2.4-.48,3.23-1.39h0c.89-.87,1.38-2.07,1.35-3.32,0-1.13-.2-1.93-.5-2.5-.3-.57-.78-1.02-1.35-1.29-.31-.16-.99-.37-1.93-.53-1.2-.19-2.41-.32-3.63-.37h0c-1.52-.07-3.04-.24-4.54-.49-1.28-.24-2.32-.54-3.21-1-1.37-.71-2.48-1.84-3.18-3.25-.7-1.4-1.01-3.03-1.01-4.82v-.04c0-1.26,.23-2.51,.69-3.67,.47-1.16,1.17-2.21,2.04-3.1h0C34.63,.98,37.01-.03,39.5,0h11.25c.87,0,1.58,.72,1.58,1.62v1.65c0,.89-.71,1.62-1.58,1.62h-11.24c-.6,0-1.2,.11-1.76,.34-.55,.25-1.05,.6-1.47,1.05h0c-.43,.44-.78,.95-1.02,1.52-.23,.57-.35,1.19-.34,1.81,0,1.13,.2,1.93,.5,2.5,.3,.57,.78,1.02,1.35,1.29,.31,.16,.99,.37,1.93,.53,1.2,.19,2.41,.32,3.63,.37h0c1.52,.07,3.04,.24,4.54,.49,1.28,.24,2.32,.54,3.21,1,1.37,.71,2.49,1.84,3.18,3.25,.7,1.4,1.01,3.02,1.01,4.82Z"/>
      <path class="cls-2" d="M80.88,11.73v10.06c.04,3.1-1.16,6.09-3.32,8.26h0c-2.12,2.22-5.03,3.45-8.05,3.41h-.02c-6.24,.05-11.33-5.1-11.37-11.49,0-.06,0-.12,0-.18V11.73c0-.89,.7-1.62,1.58-1.62,0,0,0,0,0,0h1.53c.87,0,1.58,.72,1.58,1.62h0v10.06c-.04,1.83,.68,3.58,1.97,4.84h0c2.52,2.68,6.68,2.75,9.29,.17,.05-.05,.1-.11,.16-.16h0c1.29-1.26,2-3.02,1.96-4.85V11.73c0-.89,.7-1.62,1.58-1.62,0,0,0,0,0,0h1.54c.87,0,1.58,.72,1.58,1.62h0s0,0,0,0Z"/>
      <path class="cls-2" d="M90.11,10.6c.29,.3,.46,.72,.46,1.14V31.85c0,.89-.7,1.62-1.58,1.62h-1.53c-.87,0-1.58-.72-1.58-1.62h0V11.74c0-.89,.71-1.62,1.58-1.62,0,0,0,0,0,0h1.53c.42,0,.82,.17,1.12,.47Zm.47-8.14h0c0,1.33-1.04,2.41-2.34,2.42h0c-1.29,0-2.34-1.08-2.34-2.41h0c0-.64,.24-1.24,.67-1.7,.44-.46,1.04-.72,1.67-.72h0c.63,0,1.23,.26,1.67,.72,.43,.45,.67,1.06,.67,1.69h0Zm-3.1,0h-.06s.05,0,.05,0h0Zm.76-.83h0v.03h0v-.03Zm0,1.62h0v.03h0v-.03Zm.82-.79h0s-.05,0-.05,0h.05Z"/>
      <path class="cls-2" d="M109.33,30.33v1.56c0,.89-.7,1.62-1.58,1.62h-.15c-6.61,.03-12-5.43-12.03-12.22,0-.06,0-.11,0-.17V1.66c0-.89,.7-1.61,1.57-1.62h1.51c.87,0,1.58,.72,1.58,1.62,0,0,0,0,0,0V10.12h4.48c.87,0,1.58,.73,1.57,1.62v1.49c0,.89-.7,1.62-1.58,1.62,0,0,0,0,0,0h-4.48v6.27c-.04,2.03,.75,3.98,2.17,5.39,1.36,1.45,3.25,2.25,5.21,2.21h.13c.87,0,1.58,.73,1.58,1.62h0Z"/>
      <path class="cls-2" d="M134.9,21.65v1.16c0,.89-.7,1.62-1.58,1.62h-16.06c1.02,2.59,3.48,4.27,6.2,4.25,.42,0,.83-.03,1.25-.08l.2-.02c.86-.11,1.65,.53,1.75,1.41,0,.06,.01,.13,.01,.19v1.59c0,.83-.61,1.53-1.41,1.61l-.17,.02c-.54,.06-1.09,.09-1.64,.09-6.32,0-11.44-5.25-11.44-11.73,0-6.48,5.12-11.73,11.44-11.73,6.27,0,11.37,5.18,11.44,11.61v.02Zm-5.05-2.03c-1.09-3.62-4.82-5.65-8.35-4.54-2.12,.67-3.77,2.37-4.42,4.54h12.78Z"/>
      <path class="cls-1" d="M6.72,11.23V.15C3.01,.15,0,3.23,0,7.04v10.74c1.52-2.84,3.87-5.13,6.72-6.54Z"/>
      <path class="cls-3" d="M26.23,33.43h0c-3.71,0-6.72-3.08-6.72-6.89h0v-1.33c0-3.6-2.79-6.61-6.3-6.66-3.54-.05-6.45,2.85-6.5,6.47,0,.03,0,.06,0,.09v1.43c0,3.8-3.01,6.89-6.72,6.89H0v-8.17c0-7.42,5.8-13.56,13.04-13.6,7.25-.03,13.16,5.97,13.19,13.41,0,.02,0,.03,0,.05v8.32Z"/>
    </g>
  </g>
</svg>