<svg xmlns="http://www.w3.org/2000/svg" viewBox="0 0 185 35"><defs><style>.a{fill:#fff;}.b{fill:#6651a1;}.c{fill:#32b34a;}</style></defs><path class="a" d="M9.35,26.17a4.67,4.67,0,0,1,2.75-4.28,4.69,4.69,0,0,1,5.66,1.43,4.73,4.73,0,0,1,1,2.85,4.69,4.69,0,0,1-9.37,0Z"/><path class="a" d="M18.72,26.25a4.69,4.69,0,1,1-9.37,0"/><path class="a" d="M58.05,24.87v.05A9.72,9.72,0,0,1,55.13,32h0a9.79,9.79,0,0,1-7.07,2.91h-14a1.69,1.69,0,0,1-1.69-1.69V31.5a1.69,1.69,0,0,1,1.69-1.69H48a4.6,4.6,0,0,0,3.46-1.45h0A4.58,4.58,0,0,0,53,24.9a5.45,5.45,0,0,0-.53-2.61A3.07,3.07,0,0,0,51,21a8.35,8.35,0,0,0-2.07-.56A35.9,35.9,0,0,0,45,20h0a39.64,39.64,0,0,1-4.86-.51,12.08,12.08,0,0,1-3.43-1,7.69,7.69,0,0,1-3.41-3.38,11,11,0,0,1-1.07-5v0a9.83,9.83,0,0,1,2.91-7.07h0A9.74,9.74,0,0,1,42.25,0h12A1.69,1.69,0,0,1,56,1.69V3.4a1.69,1.69,0,0,1-1.69,1.69h-12a4.61,4.61,0,0,0-3.45,1.45h0a4.62,4.62,0,0,0-1.09,1.57A4.71,4.71,0,0,0,37.35,10a5.38,5.38,0,0,0,.53,2.6A3.07,3.07,0,0,0,39.33,14a8.21,8.21,0,0,0,2.06.55,31.64,31.64,0,0,0,3.89.39h0a42,42,0,0,1,4.86.52,12.29,12.29,0,0,1,3.43,1A7.69,7.69,0,0,1,57,19.85,10.81,10.81,0,0,1,58.05,24.87Z"/><path class="a" d="M86.52,12.23V22.72A11.87,11.87,0,0,1,83,31.34h0a11.84,11.84,0,0,1-8.62,3.56h0a12.08,12.08,0,0,1-12.17-12V12.23a1.69,1.69,0,0,1,1.69-1.69h1.64a1.69,1.69,0,0,1,1.69,1.69h0V22.72a6.77,6.77,0,0,0,2.1,5.05h0a7,7,0,0,0,9.94.16l.16-.16h0a6.81,6.81,0,0,0,2.1-5.06V12.23a1.69,1.69,0,0,1,1.69-1.69h1.64a1.69,1.69,0,0,1,1.69,1.69ZM66.91,30.17Zm14.88,0Z"/><path class="a" d="M96.39,11.05a1.69,1.69,0,0,1,.49,1.2v21a1.68,1.68,0,0,1-1.68,1.69H93.56a1.69,1.69,0,0,1-1.69-1.69h0v-21a1.68,1.68,0,0,1,1.69-1.69H95.2A1.72,1.72,0,0,1,96.39,11.05Zm.5-8.49h0a2.52,2.52,0,0,1-2.5,2.51h0a2.51,2.51,0,0,1-2.5-2.51h0A2.51,2.51,0,0,1,92.6.8,2.46,2.46,0,0,1,94.39,0h0A2.46,2.46,0,0,1,96.17.8a2.52,2.52,0,0,1,.72,1.76Zm-3.32,0Zm.82-.86h0v0h0Zm0,1.69h0v0h0Zm.87-.83Z"/><path class="a" d="M117,31.63v1.63A1.7,1.7,0,0,1,115.27,35h-.15a12.81,12.81,0,0,1-12.87-12.74V1.73A1.68,1.68,0,0,1,103.92.05h1.62a1.69,1.69,0,0,1,1.7,1.68h0v8.82H112a1.69,1.69,0,0,1,1.68,1.69V13.8A1.68,1.68,0,0,1,112,15.48h-4.79V22a7.59,7.59,0,0,0,2.32,5.62,7.48,7.48,0,0,0,5.57,2.3h.14A1.69,1.69,0,0,1,117,31.63Z"/><path class="a" d="M144.31,22.58v1.21a1.69,1.69,0,0,1-1.69,1.69H125.44a7.13,7.13,0,0,0,6.64,4.43,9.91,9.91,0,0,0,1.33-.09l.22,0a1.69,1.69,0,0,1,1.88,1.47,1.41,1.41,0,0,1,0,.2v1.66A1.69,1.69,0,0,1,134,34.81l-.18,0a17.09,17.09,0,0,1-1.75.09,12.24,12.24,0,1,1,12.23-12.36Zm-5.4-2.11a7.15,7.15,0,0,0-13.67,0Z"/><path class="b" d="M7.18,11.72V.15A7.19,7.19,0,0,0,0,7.34V18.53A16.3,16.3,0,0,1,7.18,11.72Z"/><path class="c" d="M28.06,34.87h0a7.18,7.18,0,0,1-7.18-7.19h0V26.3a6.85,6.85,0,1,0-13.7-.2v1.58A7.18,7.18,0,0,1,0,34.87H0V26.35a14,14,0,1,1,28.06-.21v8.73Z"/></svg>