<svg xmlns="http://www.w3.org/2000/svg" viewBox="0 0 284 46"><defs><style>.a{fill:#2e4955;}.b{fill:#6651a1;}.c{fill:#32b34a;}</style></defs><path class="a" d="M12.29,34.4a6.15,6.15,0,0,1,3.62-5.62,6.22,6.22,0,0,1,5.07,0,6.31,6.31,0,0,1,2.37,1.88A6.17,6.17,0,0,1,24.6,34.4a6,6,0,0,1-1.29,3.77,6.16,6.16,0,0,1-11-3.77Z"/><path class="a" d="M24.6,34.51A6.12,6.12,0,0,1,21,40.12a6.15,6.15,0,0,1-8.69-5.61"/><path class="a" d="M76.31,32.69v.06A12.82,12.82,0,0,1,72.48,42h0a12.82,12.82,0,0,1-9.29,3.83H44.77a2.21,2.21,0,0,1-2.22-2.22V41.41a2.21,2.21,0,0,1,2.21-2.22h18.4a6,6,0,0,0,4.54-1.91h0a6,6,0,0,0,1.9-4.54,7.19,7.19,0,0,0-.7-3.43A4,4,0,0,0,67,27.54a10.79,10.79,0,0,0-2.71-.73,43.6,43.6,0,0,0-5.1-.51h0a54.49,54.49,0,0,1-6.39-.68,16.31,16.31,0,0,1-4.52-1.37,10.17,10.17,0,0,1-4.47-4.45,14.4,14.4,0,0,1-1.41-6.61v-.06a12.88,12.88,0,0,1,3.83-9.29h0A12.86,12.86,0,0,1,55.54,0H71.36a2.21,2.21,0,0,1,2.22,2.22V4.48a2.22,2.22,0,0,1-2.22,2.21H55.56A6.08,6.08,0,0,0,51,8.59v0a6.44,6.44,0,0,0-1.44,2.06,6.44,6.44,0,0,0-.47,2.49,7.11,7.11,0,0,0,.7,3.42,4.08,4.08,0,0,0,1.9,1.77,10.91,10.91,0,0,0,2.72.73,43.6,43.6,0,0,0,5.1.51h0a52.64,52.64,0,0,1,6.39.68,16.23,16.23,0,0,1,4.51,1.37,10.07,10.07,0,0,1,4.47,4.45A14.23,14.23,0,0,1,76.31,32.69Z"/><path class="a" d="M113.74,16.08V29.87a15.63,15.63,0,0,1-4.67,11.33h0a15.58,15.58,0,0,1-11.33,4.66h0a15.88,15.88,0,0,1-16-15.75v-14a2.21,2.21,0,0,1,2.22-2.22H86.1a2.23,2.23,0,0,1,2.22,2.22h0V29.86a8.91,8.91,0,0,0,2.76,6.65h0a9.25,9.25,0,0,0,13.06.22l.22-.22h0a8.89,8.89,0,0,0,2.76-6.66V16.08a2.21,2.21,0,0,1,2.22-2.22h2.16a2.21,2.21,0,0,1,2.22,2.22ZM88,39.66Zm19.57,0Z"/><path class="a" d="M126.72,14.53a2.3,2.3,0,0,1,.65,1.57V43.67a2.22,2.22,0,0,1-2.22,2.22H123a2.22,2.22,0,0,1-2.22-2.22h0V16.1A2.22,2.22,0,0,1,123,13.88h2.16A2.23,2.23,0,0,1,126.72,14.53Zm.66-11.17h0a3.31,3.31,0,0,1-3.29,3.31h0a3.31,3.31,0,0,1-3.29-3.31h0a3.29,3.29,0,0,1,.94-2.31,3.23,3.23,0,0,1,2.34-1h0a3.25,3.25,0,0,1,2.35,1,3.34,3.34,0,0,1,.95,2.31Zm-4.37,0Zm1.08-1.12h0v0h0Zm0,2.21h0v0h0Zm1.14-1.08h0Z"/><path class="a" d="M153.76,41.59v2.13a2.23,2.23,0,0,1-2.22,2.22h-.21a16.82,16.82,0,0,1-16.91-16.75V2.28a2.22,2.22,0,0,1,2.2-2.22h2.13A2.22,2.22,0,0,1,141,2.28h0V13.87h6.3a2.23,2.23,0,0,1,2.22,2.22v2.05a2.23,2.23,0,0,1-2.22,2.22H141V29A10,10,0,0,0,144,36.34a9.87,9.87,0,0,0,7.32,3h.19a2.24,2.24,0,0,1,2.22,2.23Z"/><path class="a" d="M189.71,29.69v1.58a2.21,2.21,0,0,1-2.21,2.22H164.91a9.34,9.34,0,0,0,8.72,5.83,14.85,14.85,0,0,0,1.76-.11l.28,0a2.22,2.22,0,0,1,2.47,1.94,2.45,2.45,0,0,1,0,.27v2.17a2.22,2.22,0,0,1-2,2.21l-.23,0a22.34,22.34,0,0,1-2.31.12,16.09,16.09,0,1,1,16.08-16.25Zm-7.1-2.78a9.39,9.39,0,0,0-18,0Z"/><path class="b" d="M9.45,15.4V.2A9.45,9.45,0,0,0,0,9.65V24.36A21.38,21.38,0,0,1,9.45,15.4Z"/><path class="c" d="M36.89,45.84h0a9.45,9.45,0,0,1-9.45-9.45h0V34.57a9,9,0,1,0-18-.26v2.08A9.44,9.44,0,0,1,0,45.84H0V34.64a18.45,18.45,0,1,1,36.89-.27V45.84Z"/></svg>