<svg xmlns="http://www.w3.org/2000/svg" viewBox="0 0 86 20"><defs><style>.a{fill:#fff;}</style></defs><path class="a" d="M5.34,15A2.68,2.68,0,1,1,8,17.64,2.66,2.66,0,0,1,5.34,15Z"/><path class="a" d="M10.7,15a2.69,2.69,0,0,1-1.58,2.44,2.72,2.72,0,0,1-2.2,0,2.76,2.76,0,0,1-1-.82A2.66,2.66,0,0,1,5.34,15"/><path class="a" d="M33.18,14.23v0a5.61,5.61,0,0,1-1.67,4h0a5.59,5.59,0,0,1-4,1.66h-8a1,1,0,0,1-1-1V18a1,1,0,0,1,1-1h8a2.59,2.59,0,0,0,2-.83h0a2.67,2.67,0,0,0,.83-2A3.16,3.16,0,0,0,30,12.75a1.66,1.66,0,0,0-.83-.76A4.25,4.25,0,0,0,28,11.67a18.17,18.17,0,0,0-2.21-.22h0a23.39,23.39,0,0,1-2.78-.3,6.87,6.87,0,0,1-2-.6,4.39,4.39,0,0,1-1.95-1.93,6.31,6.31,0,0,1-.61-2.87v0a5.55,5.55,0,0,1,1.66-4h0a5.61,5.61,0,0,1,4-1.67H31a1,1,0,0,1,1,1V2a1,1,0,0,1-1,1H24.15a2.83,2.83,0,0,0-1.07.21,2.64,2.64,0,0,0-.9.62h0a2.78,2.78,0,0,0-.63.89,2.69,2.69,0,0,0-.2,1.08,3.11,3.11,0,0,0,.3,1.49,1.82,1.82,0,0,0,.83.77,4.64,4.64,0,0,0,1.18.32,18.14,18.14,0,0,0,2.22.22h0a23.21,23.21,0,0,1,2.77.29,7.65,7.65,0,0,1,2,.6,4.39,4.39,0,0,1,1.94,1.94A6.18,6.18,0,0,1,33.18,14.23Z"/><path class="a" d="M49.45,7v6a6.77,6.77,0,0,1-2,4.92h0a6.81,6.81,0,0,1-4.93,2h0a6.9,6.9,0,0,1-6.95-6.85V7a1,1,0,0,1,1-1h.94a1,1,0,0,1,1,1h0v6a3.82,3.82,0,0,0,1.2,2.88h0a4,4,0,0,0,5.68.09l.1-.09h0A3.88,3.88,0,0,0,46.58,13V7a1,1,0,0,1,1-1h.94a1,1,0,0,1,1,1ZM38.24,17.26Zm8.5,0Z"/><path class="a" d="M55.09,6.33a1,1,0,0,1,.28.68V19a1,1,0,0,1-1,1h-.94a1,1,0,0,1-1-1h0V7a1,1,0,0,1,1-1h.94A1,1,0,0,1,55.09,6.33Zm.29-4.85h0A1.44,1.44,0,0,1,54,2.92h0a1.44,1.44,0,0,1-1.43-1.44h0a1.41,1.41,0,0,1,.41-1A1.38,1.38,0,0,1,54,0h0a1.38,1.38,0,0,1,1,.43,1.42,1.42,0,0,1,.42,1Zm-1.9,0ZM54,1Zm0,1h0V2h0Zm.5-.47h0Z"/><path class="a" d="M66.85,18.09V19a1,1,0,0,1-1,1h-.09a7.32,7.32,0,0,1-7.35-7.28V1a1,1,0,0,1,1-1h.92a1,1,0,0,1,1,1h0v5H64a1,1,0,0,1,1,1V7.9a1,1,0,0,1-1,1H61.29V12.6a4.36,4.36,0,0,0,1.33,3.21,4.28,4.28,0,0,0,3.18,1.32h.08a1,1,0,0,1,1,1Z"/><path class="a" d="M82.48,12.92v.69a1,1,0,0,1-1,1H71.7a4,4,0,0,0,3.79,2.54,6.47,6.47,0,0,0,.76-.05l.12,0a1,1,0,0,1,1.08.85V19a1,1,0,0,1-.86,1h-.1c-.33,0-.67,0-1,0a7,7,0,1,1,7-7.06Zm-3.09-1.21a4.09,4.09,0,0,0-7.81,0Z"/><path class="a" d="M4.11,6.71V.1A4.11,4.11,0,0,0,0,4.21v6.4A9.28,9.28,0,0,1,4.11,6.71Z"/><path class="a" d="M16,19.94h0a4.11,4.11,0,0,1-4.11-4.1h0V15a3.91,3.91,0,1,0-7.82-.11v.91A4.11,4.11,0,0,1,0,19.94H0V15.07A8,8,0,1,1,16,15v5Z"/></svg>