<?xml version="1.0" encoding="UTF-8"?>
<svg id="Layer_2" data-name="Layer 2" xmlns="http://www.w3.org/2000/svg" viewBox="0 0 82.5 19.98">
  <defs>
    <style>
      .cls-1 {
        fill: #6651a1;
      }

      .cls-2 {
        fill: #2e4955;
      }

      .cls-3 {
        fill: #32b34a;
      }
    </style>
  </defs>
  <g id="Layer_1-2" data-name="Layer 1">
    <g>
      <path class="cls-2" d="M5.34,14.96c0-1.05,.61-2.01,1.58-2.44,.7-.31,1.5-.31,2.21,0,.4,.18,.76,.47,1.03,.82,.35,.47,.54,1.04,.54,1.62,0,.59-.2,1.17-.56,1.64-.51,.65-1.29,1.03-2.11,1.04-1.48,0-2.67-1.2-2.68-2.68Z"/>
      <path class="cls-2" d="M10.7,15c0,1.05-.61,2.01-1.58,2.44-.7,.31-1.5,.31-2.21,0-.4-.18-.76-.47-1.03-.82-.35-.47-.54-1.04-.54-1.62"/>
      <path class="cls-2" d="M33.19,14.22v.03c.02,1.52-.59,2.97-1.67,4.04h0c-1.06,1.09-2.52,1.69-4.04,1.67h-8.01c-.53,0-.97-.43-.97-.97v-.98c0-.53,.43-.96,.96-.97h8c.75,.02,1.47-.28,1.98-.83h0c.54-.52,.84-1.23,.83-1.98,0-.67-.12-1.15-.3-1.49-.18-.34-.47-.61-.83-.77-.19-.09-.6-.22-1.18-.32-.73-.12-1.48-.19-2.22-.22h0c-.93-.04-1.86-.14-2.78-.29-.78-.14-1.42-.32-1.96-.6-.84-.42-1.52-1.1-1.94-1.93-.43-.83-.61-1.8-.61-2.87v-.03c0-.75,.14-1.49,.42-2.19,.29-.69,.71-1.32,1.24-1.85h0C21.18,.59,22.64-.02,24.15,0h6.88c.53,0,.97,.43,.97,.97v.98c0,.53-.43,.96-.97,.96h-6.87c-.37,0-.73,.06-1.07,.2-.34,.15-.64,.36-.9,.62h0c-.27,.26-.48,.57-.62,.9-.14,.34-.21,.71-.21,1.08,0,.67,.12,1.15,.3,1.49,.18,.34,.48,.61,.83,.77,.19,.09,.6,.22,1.18,.32,.73,.12,1.48,.19,2.22,.22h0c.93,.04,1.86,.14,2.78,.29,.78,.14,1.42,.32,1.96,.6,.84,.42,1.52,1.1,1.95,1.94,.43,.83,.62,1.8,.62,2.87Z"/>
      <path class="cls-2" d="M49.46,6.99v6c.02,1.85-.71,3.63-2.03,4.92h0c-1.3,1.32-3.08,2.06-4.93,2.03h-.01c-3.81,.03-6.93-3.04-6.96-6.85,0-.04,0-.07,0-.11V6.99c0-.53,.43-.96,.96-.97,0,0,0,0,0,0h.94c.53,0,.96,.43,.97,.96h0v6c-.02,1.09,.41,2.14,1.2,2.89h0c1.54,1.6,4.09,1.64,5.68,.1,.03-.03,.06-.06,.09-.09h0c.79-.75,1.23-1.8,1.2-2.89V6.99c0-.53,.43-.96,.96-.97,0,0,0,0,0,0h.94c.53,0,.96,.43,.97,.96h0s0,0,0,0Z"/>
      <path class="cls-2" d="M55.1,6.32c.18,.18,.28,.43,.28,.68v11.99c0,.53-.43,.96-.96,.97h-.94c-.53,0-.97-.43-.97-.96h0V7c0-.53,.43-.97,.97-.97,0,0,0,0,0,0h.94c.26,0,.5,.1,.68,.28Zm.29-4.86h0c0,.8-.64,1.44-1.43,1.44h0c-.79,0-1.43-.65-1.43-1.44h0c0-.38,.15-.74,.41-1.01,.27-.27,.64-.43,1.02-.43h0c.38,0,.75,.16,1.02,.43,.26,.27,.41,.63,.41,1.01h0Zm-1.9,0h-.04s.03,0,.03,0h0Zm.47-.49h0v.02h0v-.02Zm0,.96h0v.02h0v-.02Zm.5-.47h0s-.03,0-.03,0h.03Z"/>
      <path class="cls-2" d="M66.86,18.08v.93c0,.53-.43,.96-.96,.97h-.09c-4.04,.02-7.34-3.24-7.36-7.28,0-.03,0-.07,0-.1V.99c0-.53,.43-.96,.96-.97h.93c.53,0,.97,.43,.97,.96,0,0,0,0,0,0V6.03h2.74c.53,0,.96,.43,.96,.97v.89c0,.53-.43,.96-.96,.97,0,0,0,0,0,0h-2.74v3.74c-.02,1.21,.46,2.37,1.33,3.21,.83,.86,1.99,1.34,3.18,1.32h.08c.53,0,.96,.43,.96,.97h0Z"/>
      <path class="cls-2" d="M82.5,12.91v.69c0,.53-.43,.96-.96,.97h-9.82c.63,1.54,2.13,2.55,3.79,2.53,.26,0,.51-.02,.76-.05h.12c.53-.08,1.01,.3,1.07,.83,0,.04,0,.08,0,.12v.95c0,.49-.37,.91-.86,.96h-.1c-.33,.05-.67,.06-1,.06-3.86,0-6.99-3.13-6.99-6.99,0-3.86,3.13-6.99,6.99-6.99,3.83,0,6.95,3.09,6.99,6.92h0Zm-3.09-1.2c-.66-2.16-2.95-3.37-5.11-2.7-1.29,.4-2.31,1.41-2.7,2.7h7.81Z"/>
      <path class="cls-1" d="M4.11,6.7V.09C1.84,.09,0,1.93,0,4.2v6.4c.93-1.69,2.37-3.06,4.11-3.9Z"/>
      <path class="cls-3" d="M16.04,19.93h0c-2.27,0-4.11-1.84-4.11-4.11h0v-.79c0-2.15-1.71-3.94-3.85-3.97-2.16-.03-3.94,1.7-3.97,3.86,0,.02,0,.04,0,.05v.85c0,2.27-1.84,4.11-4.11,4.11H0v-4.87C0,10.64,3.55,6.98,7.97,6.95c4.43-.02,8.05,3.56,8.07,7.99,0,0,0,.02,0,.03v4.96Z"/>
    </g>
  </g>
</svg>