<?xml version="1.0" encoding="UTF-8"?>
<svg id="Layer_2" data-name="Layer 2" xmlns="http://www.w3.org/2000/svg" viewBox="0 0 854.23 206.88">
  <defs>
    <style>
      .cls-1 {
        fill: #6651a1;
      }

      .cls-2 {
        fill: #2e4955;
      }

      .cls-3 {
        fill: #32b34a;
      }
    </style>
  </defs>
  <g id="Layer_2-2" data-name="Layer 2">
    <g id="Layer_1-2" data-name="Layer 1-2">
      <g>
        <path class="cls-2" d="M55.29,154.9c0-10.87,6.32-20.81,16.36-25.26,7.25-3.21,15.53-3.21,22.88,0,4.14,1.86,7.87,4.87,10.66,8.49,3.62,4.87,5.59,10.77,5.59,16.77s-2.07,12.11-5.8,16.98c-5.28,6.73-13.36,10.66-21.85,10.77-15.32,0-27.65-12.43-27.75-27.75h-.1Z"/>
        <path class="cls-2" d="M110.79,155.32c0,10.87-6.32,20.81-16.36,25.26-7.25,3.21-15.53,3.21-22.88,0-4.14-1.86-7.87-4.87-10.66-8.49-3.62-4.87-5.59-10.77-5.59-16.77"/>
        <path class="cls-2" d="M343.66,147.24v.31c.21,15.74-6.11,30.75-17.29,41.83h0c-10.98,11.29-26.09,17.5-41.83,17.29h-82.94c-5.49,0-10.04-4.45-10.04-10.04v-10.15c0-5.49,4.45-9.94,9.94-10.04h82.83c7.77,.21,15.22-2.9,20.5-8.59h0c5.59-5.38,8.7-12.74,8.59-20.5,0-6.94-1.24-11.91-3.11-15.43-1.86-3.52-4.87-6.32-8.59-7.97-1.97-.93-6.21-2.28-12.22-3.31-7.56-1.24-15.32-1.97-22.99-2.28h0c-9.63-.41-19.26-1.45-28.78-3-8.08-1.45-14.7-3.31-20.29-6.21-8.7-4.35-15.74-11.39-20.09-19.98-4.45-8.59-6.32-18.64-6.32-29.72v-.31c0-7.77,1.45-15.43,4.35-22.68,3-7.14,7.35-13.67,12.84-19.16h0C219.3,6.11,234.42-.2,250.06,0h71.24c5.49,0,10.04,4.45,10.04,10.04v10.15c0,5.49-4.45,9.94-10.04,9.94h-71.13c-3.83,0-7.56,.62-11.08,2.07-3.52,1.55-6.63,3.73-9.32,6.42h0c-2.8,2.69-4.97,5.9-6.42,9.32-1.45,3.52-2.17,7.35-2.17,11.18,0,6.94,1.24,11.91,3.11,15.43,1.86,3.52,4.97,6.32,8.59,7.97,1.97,.93,6.21,2.28,12.22,3.31,7.56,1.24,15.32,1.97,22.99,2.28h0c9.63,.41,19.26,1.45,28.78,3,8.08,1.45,14.7,3.31,20.29,6.21,8.7,4.35,15.74,11.39,20.19,20.09,4.45,8.59,6.42,18.64,6.42,29.72l-.1,.1Z"/>
        <path class="cls-2" d="M512.12,72.38v62.13c.21,19.16-7.35,37.59-21.02,50.94h0c-13.46,13.67-31.89,21.33-51.05,21.02h-.1c-39.45,.31-71.75-31.48-72.07-70.93v-63.16c0-5.49,4.45-9.94,9.94-10.04h9.73c5.49,0,9.94,4.45,10.04,9.94h0v62.13c-.21,11.29,4.25,22.16,12.43,29.92h0c15.95,16.57,42.35,16.98,58.81,1.04,.31-.31,.62-.62,.93-.93h0c8.18-7.77,12.74-18.64,12.43-29.92v-62.13c0-5.49,4.45-9.94,9.94-10.04h9.73c5.49,0,9.94,4.45,10.04,9.94h0l.21,.1Z"/>
        <path class="cls-2" d="M570.52,65.44c1.86,1.86,2.9,4.45,2.9,7.04v124.15c0,5.49-4.45,9.94-9.94,10.04h-9.73c-5.49,0-10.04-4.45-10.04-9.94h0V72.48c0-5.49,4.45-10.04,10.04-10.04h9.73c2.69,0,5.18,1.04,7.04,2.9v.1Zm3-50.32h0c0,8.28-6.63,14.91-14.81,14.91h0c-8.18,0-14.81-6.73-14.81-14.91h0c0-3.93,1.55-7.66,4.25-10.46,2.8-2.8,6.63-4.45,10.56-4.45h0c3.93,0,7.77,1.66,10.56,4.45,2.69,2.8,4.25,6.52,4.25,10.46h0Zm-19.67,0h0Zm4.87-5.07h0v.21h0v-.21Zm0,9.94h0v.21h0v-.21Zm5.18-4.87h0Z"/>
        <path class="cls-2" d="M692.28,187.21v9.63c0,5.49-4.45,9.94-9.94,10.04h-.93c-41.83,.21-76-33.55-76.21-75.38V10.26c0-5.49,4.45-9.94,9.94-10.04h9.63c5.49,0,10.04,4.45,10.04,9.94h0V62.44h28.37c5.49,0,9.94,4.45,9.94,10.04v9.22c0,5.49-4.45,9.94-9.94,10.04h-28.37v38.72c-.21,12.53,4.76,24.54,13.77,33.24,8.59,8.9,20.6,13.87,32.93,13.67h.83c5.49,0,9.94,4.45,9.94,10.04h0v-.21Z"/>
        <path class="cls-2" d="M854.23,133.68v7.14c0,5.49-4.45,9.94-9.94,10.04h-101.68c6.52,15.95,22.05,26.4,39.24,26.2,2.69,0,5.28-.21,7.87-.52h1.24c5.49-.83,10.46,3.11,11.08,8.59v11.08c0,5.07-3.83,9.42-8.9,9.94h-1.04c-3.42,.52-6.94,.62-10.35,.62-39.97,0-72.38-32.41-72.38-72.38s32.41-72.38,72.38-72.38,71.96,31.99,72.38,71.65h.1Zm-31.99-12.43c-6.83-22.37-30.54-34.89-52.91-27.96-13.36,4.14-23.92,14.6-27.96,27.96h80.87Z"/>
        <path class="cls-1" d="M42.56,69.38V.94C19.05,.94,0,19.99,0,43.49V109.76c9.63-17.5,24.54-31.68,42.56-40.38Z"/>
        <path class="cls-3" d="M166.08,206.37h0c-23.5,0-42.56-19.05-42.56-42.56h0v-8.18c0-22.26-17.71-40.8-39.86-41.11-22.37-.31-40.8,17.6-41.11,39.97v9.32c0,23.5-19.05,42.56-42.56,42.56H0v-50.43C0,110.17,36.76,72.28,82.52,71.97c45.87-.21,83.35,36.86,83.56,82.73v.31s0,51.36,0,51.36Z"/>
      </g>
    </g>
  </g>
</svg>