<svg xmlns="http://www.w3.org/2000/svg" viewBox="0 0 100 100"><defs><style>.a{fill:#03b5d3;}.b{fill:#5dc18f;}.c{fill:#ade0f1;}.d{fill:#dde776;}</style></defs><path class="a" d="M18.59,14.07H81.1a12,12,0,0,1,12,12V70.54a0,0,0,0,1,0,0H6.59a0,0,0,0,1,0,0V26.07A12,12,0,0,1,18.59,14.07Z"/><path class="b" d="M2.69,70.54H97.31a1.86,1.86,0,0,1,1.86,1.86v3A10.49,10.49,0,0,1,88.68,85.93H11.32A10.49,10.49,0,0,1,.83,75.44v-3a1.86,1.86,0,0,1,1.86-1.86Z"/><path class="c" d="M70.5,28.49h0A12.52,12.52,0,1,0,83,41,12.53,12.53,0,0,0,70.5,28.49ZM72.22,41a2.22,2.22,0,0,0-.16-1.3L69,32.52a8.82,8.82,0,0,1,1.54-.14,8.63,8.63,0,1,1-8.61,9.09l7.73,1.35A2.24,2.24,0,0,0,72.22,41Zm-9.66-3.39a8.75,8.75,0,0,1,2.83-3.57l1.9,4.41Z"/><path class="c" d="M82.14,60.78H58.93a1.5,1.5,0,0,1-1.52-1.42,1.45,1.45,0,0,1,1.45-1.49H82.07a1.5,1.5,0,0,1,1.52,1.42A1.45,1.45,0,0,1,82.14,60.78Z"/><rect class="d" x="30.76" y="41.41" width="31.33" height="8.21" rx="4.1" transform="translate(91.93 -0.91) rotate(90)"/><rect class="d" x="23.06" y="45.98" width="22.18" height="8.21" rx="4.1" transform="translate(84.24 15.93) rotate(90)"/><rect class="d" x="15.65" y="51.05" width="12.04" height="8.21" rx="4.1" transform="translate(76.83 33.49) rotate(90)"/></svg>