<svg xmlns="http://www.w3.org/2000/svg" viewBox="0 0 100 100"><defs><style>.a{fill:#80c783;}.b{fill:#9675ce;}.c{fill:#ffb64d;}.d{fill:#ffda71;}</style></defs><path class="a" d="M20,53.42h7.53A18.84,18.84,0,0,1,46.41,72.26v15a5,5,0,0,1-5,5H6.2a5,5,0,0,1-5-5v-15A18.84,18.84,0,0,1,20,53.42Z"/><path class="b" d="M64.14,42.08H75A23.76,23.76,0,0,1,98.8,65.83V86.37a5.87,5.87,0,0,1-5.87,5.87H46.25a5.87,5.87,0,0,1-5.87-5.87V65.83A23.76,23.76,0,0,1,64.14,42.08Z"/><circle class="c" cx="69.59" cy="31.7" r="17.69"/><circle class="d" cx="23.8" cy="45.39" r="13.69"/></svg>