<svg xmlns="http://www.w3.org/2000/svg" viewBox="0 0 100 100"><defs><style>.a{fill:#9675ce;}.b{fill:#f05b71;}.c{fill:#f2778b;}</style></defs><path class="a" d="M62,65.62a18.62,18.62,0,0,1-23.92,0L3.09,36.33a1.08,1.08,0,0,0-1.77.83V79.85A11.84,11.84,0,0,0,13.16,91.69h73.7A11.84,11.84,0,0,0,98.7,79.85V37.14a1.08,1.08,0,0,0-1.77-.83Z"/><path class="b" d="M57.75,60.3,94.37,29.61a12.06,12.06,0,0,0-7.75-21.3H13.38a12.06,12.06,0,0,0-7.75,21.3L42.25,60.3A12.06,12.06,0,0,0,57.75,60.3Z"/><rect class="c" x="7.96" y="14.83" width="31.9" height="10.76" rx="5.38"/></svg>